<svg xmlns="http://www.w3.org/2000/svg" width="1600" height="900" viewBox="0 0 1600 900">
  <defs>
    <linearGradient id="bg" x1="0" y1="0" x2="0" y2="1">
      <stop offset="0%" stop-color="#07150f" />
      <stop offset="100%" stop-color="#0f3428" />
    </linearGradient>
    <linearGradient id="shine" x1="0" y1="0" x2="1" y2="1">
      <stop offset="0%" stop-color="#ffffff" stop-opacity="0.12" />
      <stop offset="100%" stop-color="#ffffff" stop-opacity="0" />
    </linearGradient>
    <filter id="shadow" x="-20%" y="-20%" width="140%" height="140%">
      <feDropShadow dx="0" dy="18" stdDeviation="24" flood-color="#021009" flood-opacity="0.45" />
    </filter>
  </defs>
  <rect width="1600" height="900" fill="url(#bg)" rx="36" />
  <circle cx="1260" cy="120" r="220" fill="#1b5b42" opacity="0.23" />
  <circle cx="1380" cy="760" r="280" fill="#2b7a58" opacity="0.18" />
  <circle cx="180" cy="120" r="180" fill="#4a9d75" opacity="0.08" />
  <rect x="58" y="58" width="1484" height="784" rx="34" fill="#10271f" opacity="0.92" filter="url(#shadow)" />
  <rect x="58" y="58" width="1484" height="784" rx="34" fill="url(#shine)" opacity="0.55" />
  <rect x="92" y="92" width="170" height="34" rx="17" fill="#1a4334" />
  <text x="177" y="115" fill="#98f5a7" font-size="18" font-family="Avenir Next, Helvetica, Arial, sans-serif" text-anchor="middle" letter-spacing="2">FOOTBALL DATA</text>
  <text x="92" y="178" fill="#f5f7f2" font-size="52" font-weight="700" font-family="Avenir Next, Helvetica, Arial, sans-serif">How Players Finished</text>
  <text x="92" y="220" fill="#9cb7aa" font-size="23" font-family="Avenir Next, Helvetica, Arial, sans-serif">Body-part distribution of scored goals, distilled into a visual card that reads instantly in a portfolio gallery.</text>
  
  <path d="M 410.00 325.00 A 170 170 0 0 1 462.93 656.55 L 437.40 578.63 A 88 88 0 0 0 410.00 407.00 Z" fill="#98f5a7" /><path d="M 462.93 656.55 A 170 170 0 0 1 243.63 460.06 L 323.88 476.91 A 88 88 0 0 0 437.40 578.63 Z" fill="#78c8ff" /><path d="M 243.63 460.06 A 170 170 0 0 1 401.72 325.20 L 405.72 407.10 A 88 88 0 0 0 323.88 476.91 Z" fill="#f6c85f" /><path d="M 401.72 325.20 A 170 170 0 0 1 410.00 325.00 L 410.00 407.00 A 88 88 0 0 0 405.72 407.10 Z" fill="#ff7b7b" />
  <circle cx="410" cy="495" r="62" fill="#113326" />
  <text x="410" y="490" fill="#f5f7f2" font-size="44" font-weight="700" font-family="Avenir Next, Helvetica, Arial, sans-serif" text-anchor="middle">129</text>
  <text x="410" y="526" fill="#9cb7aa" font-size="20" font-family="Avenir Next, Helvetica, Arial, sans-serif" text-anchor="middle">tracked finishes</text>
  
  <circle cx="642.1" cy="458.0" r="7" fill="#98f5a7" />
  <text x="660.1" y="464.0" fill="#f5f7f2" font-size="22" font-family="Avenir Next, Helvetica, Arial, sans-serif">Right foot</text>

  <circle cx="253.2" cy="670.0" r="7" fill="#78c8ff" />
  <text x="271.2" y="676.0" fill="#f5f7f2" font-size="22" font-family="Avenir Next, Helvetica, Arial, sans-serif">Left foot</text>

  <circle cx="257.5" cy="316.2" r="7" fill="#f6c85f" />
  <text x="275.5" y="322.2" fill="#f5f7f2" font-size="22" font-family="Avenir Next, Helvetica, Arial, sans-serif">Header</text>

  <circle cx="404.3" cy="260.1" r="7" fill="#ff7b7b" />
  <text x="422.3" y="266.1" fill="#f5f7f2" font-size="22" font-family="Avenir Next, Helvetica, Arial, sans-serif">Backheel</text>

  
  <rect x="922" y="262" width="430" height="58" rx="20" fill="#173a2d" />
  <rect x="922" y="262" width="193.3" height="58" rx="20" fill="#98f5a7" opacity="0.88" />
  <text x="948" y="300" fill="#f5f7f2" font-size="26" font-family="Avenir Next, Helvetica, Arial, sans-serif">Right foot</text>
  <text x="1318" y="300" fill="#f5f7f2" font-size="26" font-weight="700" font-family="Avenir Next, Helvetica, Arial, sans-serif" text-anchor="end">58</text>
  <text x="1342" y="300" fill="#9cb7aa" font-size="18" font-family="Avenir Next, Helvetica, Arial, sans-serif" text-anchor="end">45%</text>

  <rect x="922" y="348" width="430" height="58" rx="20" fill="#173a2d" />
  <rect x="922" y="348" width="143.3" height="58" rx="20" fill="#78c8ff" opacity="0.88" />
  <text x="948" y="386" fill="#f5f7f2" font-size="26" font-family="Avenir Next, Helvetica, Arial, sans-serif">Left foot</text>
  <text x="1318" y="386" fill="#f5f7f2" font-size="26" font-weight="700" font-family="Avenir Next, Helvetica, Arial, sans-serif" text-anchor="end">43</text>
  <text x="1342" y="386" fill="#9cb7aa" font-size="18" font-family="Avenir Next, Helvetica, Arial, sans-serif" text-anchor="end">33%</text>

  <rect x="922" y="434" width="430" height="58" rx="20" fill="#173a2d" />
  <rect x="922" y="434" width="90.0" height="58" rx="20" fill="#f6c85f" opacity="0.88" />
  <text x="948" y="472" fill="#f5f7f2" font-size="26" font-family="Avenir Next, Helvetica, Arial, sans-serif">Header</text>
  <text x="1318" y="472" fill="#f5f7f2" font-size="26" font-weight="700" font-family="Avenir Next, Helvetica, Arial, sans-serif" text-anchor="end">27</text>
  <text x="1342" y="472" fill="#9cb7aa" font-size="18" font-family="Avenir Next, Helvetica, Arial, sans-serif" text-anchor="end">21%</text>

  <rect x="922" y="520" width="430" height="58" rx="20" fill="#173a2d" />
  <rect x="922" y="520" width="3.3" height="58" rx="20" fill="#ff7b7b" opacity="0.88" />
  <text x="948" y="558" fill="#f5f7f2" font-size="26" font-family="Avenir Next, Helvetica, Arial, sans-serif">Backheel</text>
  <text x="1318" y="558" fill="#f5f7f2" font-size="26" font-weight="700" font-family="Avenir Next, Helvetica, Arial, sans-serif" text-anchor="end">1</text>
  <text x="1342" y="558" fill="#9cb7aa" font-size="18" font-family="Avenir Next, Helvetica, Arial, sans-serif" text-anchor="end">1%</text>

  <rect x="922" y="666" width="430" height="112" rx="28" fill="#173a2d" />
  <text x="956" y="710" fill="#9cb7aa" font-size="18" font-family="Avenir Next, Helvetica, Arial, sans-serif">Readout</text>
  <text x="956" y="756" fill="#f5f7f2" font-size="30" font-weight="700" font-family="Avenir Next, Helvetica, Arial, sans-serif">Right-foot finishes dominate</text>
  <text x="956" y="788" fill="#98f5a7" font-size="22" font-family="Avenir Next, Helvetica, Arial, sans-serif">58 goals, roughly 45% of the tracked total</text>
  
  <rect x="1000" y="180" width="470" height="610" rx="28" fill="none" stroke="#5ec084" stroke-opacity="0.18" stroke-width="2" />
  <line x1="1235" y1="180" x2="1235" y2="790" stroke="#5ec084" stroke-opacity="0.18" stroke-width="2" />
  <circle cx="1235" cy="485" r="74" fill="none" stroke="#5ec084" stroke-opacity="0.18" stroke-width="2" />
  <rect x="1000" y="330" width="74" height="310" fill="none" stroke="#5ec084" stroke-opacity="0.18" stroke-width="2" />
  <rect x="1396" y="330" width="74" height="310" fill="none" stroke="#5ec084" stroke-opacity="0.18" stroke-width="2" />


</svg>
