<svg width="96" height="96" viewBox="0 0 96 96" fill="none" xmlns="http://www.w3.org/2000/svg">
  <rect x="12" y="12" width="72" height="72" rx="22" fill="#121821"/>
  <ellipse cx="48" cy="30" rx="19" ry="8" fill="#C83A36"/>
  <path d="M29 30V45C29 49.4 37.5 53 48 53C58.5 53 67 49.4 67 45V30" fill="#B5302D"/>
  <ellipse cx="48" cy="45" rx="19" ry="8" fill="#E44E4A"/>
  <path d="M29 45V61C29 65.4 37.5 69 48 69C58.5 69 67 65.4 67 61V45" fill="#8D211F"/>
  <ellipse cx="48" cy="61" rx="19" ry="8" fill="#CC2927"/>
  <path d="M39 29C41.5 30.4 44.4 31 48 31C51.6 31 54.5 30.4 57 29" stroke="#FFF3F2" stroke-width="2.5" stroke-linecap="round"/>
</svg>
