<svg width="96" height="96" viewBox="0 0 96 96" fill="none" xmlns="http://www.w3.org/2000/svg">
  <rect x="10" y="14" width="76" height="68" rx="18" fill="#11161F"/>
  <ellipse cx="48" cy="32" rx="20" ry="8" fill="#7AA2D6"/>
  <path d="M28 32V49C28 53.4183 36.9543 57 48 57C59.0457 57 68 53.4183 68 49V32" fill="#4B6D97"/>
  <ellipse cx="48" cy="49" rx="20" ry="8" fill="#648AB8"/>
  <path d="M28 49V64C28 68.4183 36.9543 72 48 72C59.0457 72 68 68.4183 68 64V49" fill="#35516F"/>
  <ellipse cx="48" cy="64" rx="20" ry="8" fill="#5379A6"/>
  <path d="M38 30C40.5 31.6 43.7 32.4 48 32.4C52.3 32.4 55.5 31.6 58 30" stroke="#EAF2FB" stroke-width="2" stroke-linecap="round"/>
</svg>
